<?xml version="1.0" encoding="UTF-8" standalone="no"?>
<!-- Created with Inkscape (http://www.inkscape.org/) -->

<svg
   xmlns:dc="http://purl.org/dc/elements/1.1/"
   xmlns:cc="http://creativecommons.org/ns#"
   xmlns:rdf="http://www.w3.org/1999/02/22-rdf-syntax-ns#"
   xmlns:svg="http://www.w3.org/2000/svg"
   xmlns="http://www.w3.org/2000/svg"
   xmlns:sodipodi="http://sodipodi.sourceforge.net/DTD/sodipodi-0.dtd"
   xmlns:inkscape="http://www.inkscape.org/namespaces/inkscape"
   width="740"
   height="200"
   id="svg2"
   version="1.1"
   inkscape:version="0.48.1 "
   sodipodi:docname="SG.svg">
  <defs
     id="defs4" />
  <sodipodi:namedview
     id="base"
     pagecolor="#ffffff"
     bordercolor="#666666"
     borderopacity="1.0"
     inkscape:pageopacity="0.0"
     inkscape:pageshadow="2"
     inkscape:zoom="1"
     inkscape:cx="381.04906"
     inkscape:cy="113.14783"
     inkscape:document-units="px"
     inkscape:current-layer="svg2"
     showgrid="false"
     inkscape:window-width="1024"
     inkscape:window-height="548"
     inkscape:window-x="-8"
     inkscape:window-y="-8"
     inkscape:window-maximized="1" />
  <rect
     style="fill:#ffffff;fill-opacity:1;stroke:none"
     id="rect3769"
     width="103.55138"
     height="108"
     x="437"
     y="33" />
  <g
     inkscape:label="Layer 1"
     inkscape:groupmode="layer"
     id="layer1"
     transform="translate(0,-852.36218)" />
  <metadata
     id="metadata3001">
    <rdf:RDF>
      <cc:Work
         rdf:about="">
        <dc:title></dc:title>
        <dc:format>image/svg+xml</dc:format>
        <dc:type
           rdf:resource="http://purl.org/dc/dcmitype/StillImage" />
      </cc:Work>
    </rdf:RDF>
  </metadata>
  <path
     style="fill:#050505"
     d="M 22.686642,161.75 23,158.5 l 347.25,-0.25142 347.25,-0.25143 0,3.50143 0,3.50142 -347.56336,0 -347.563357,0 0.313359,-3.25 z M 382.62881,151.65521 c -0.89199,-1.07479 -0.77553,-1.70329 0.51376,-2.77253 4.16823,-3.45682 5.59677,-12.98076 2.91115,-19.40836 -1.66613,-3.98759 -0.92647,-4.75581 5.5321,-5.7457 4.94927,-0.75857 6.11305,0.2857 6.65981,5.97586 0.79102,8.23235 -3.76355,16.56525 -11.85449,21.6886 -2.21307,1.40136 -2.78385,1.44113 -3.76233,0.26213 z M 431.5,89.5 l 0,-61.5 55.5,0 55.5,0 0,61.5 0,61.5 -55.5,0 -55.5,0 0,-61.5 z m 77.4427,48.04231 c 4.19024,-0.80172 10.27037,-2.64771 13.5114,-4.1022 l 5.89277,-2.64451 0.32656,-18.69529 c 0.37128,-21.25506 1.03318,-23.48564 7.319,-24.66487 C 544.04894,85.92403 538.36067,85 521,85 c -11.42713,0 -18.5,0.37503 -18.5,0.98095 0,0.53952 1.125,1.21452 2.5,1.5 1.375,0.28548 3.61201,0.74936 4.97114,1.03086 4.2456,0.87932 4.92158,3.73228 5.3474,22.56859 l 0.39743,17.5804 -5.35798,2.32904 c -7.85787,3.41571 -18.64546,3.85213 -26.05962,1.05427 -24.27813,-9.16178 -33.75327,-49.4686 -17.33413,-73.73865 8.94267,-13.21867 27.52311,-17.93737 42.26535,-10.73372 6.10894,2.98507 10.3193,7.67202 14.0747,15.66785 3.02052,6.43115 5.77469,7.85246 4.86463,2.51041 C 527.8644,63.9625 527.32938,58 526.97998,52.5 526.28966,41.63357 525.81181,39 524.53044,39 c -0.45914,0 -1.3054,1.35 -1.8806,3 -1.28889,3.69732 -2.59572,3.74957 -12.18745,0.48721 -14.00579,-4.76368 -28.23544,-4.0131 -40.84107,2.15426 -12.26318,5.99981 -23.74056,22.61258 -26.31866,38.09456 -4.27267,25.65815 12.40055,49.64215 38.06441,54.75468 8.96721,1.78637 18.41639,1.80406 27.57563,0.0516 z M 32.5,122.5 c 0,-19.1679 1.173171,-21.34751 4.819424,-8.95393 C 41.0974,126.38738 50.067955,133 63.710257,133 70.715866,133 74.961933,131.34973 79,127.0575 c 2.687266,-2.85641 3,-3.85455 3,-9.57498 0,-6.02309 -0.211489,-6.60208 -3.72009,-10.18433 C 76.23386,105.20918 67.959849,99.675 59.893218,95 37.093383,81.7864 32.25,76.44248 32.25,64.5 32.25,57.11777 34.63178,51.92055 40.405308,46.70451 46.352924,41.3312 50.791895,39.69774 59.5,39.67802 c 5.605689,-0.0127 9.341339,0.64542 14.79027,2.60566 7.925947,2.85133 9.888669,2.69097 11.261583,-0.92007 C 87.719669,35.66183 88.5,39.40352 88.5,55.5 88.5,64.575 88.09815,72 87.606989,72 86.549574,72 85.5,69.54813 85.5,67.07793 85.5,66.11077 84.112938,62.54369 82.417641,59.1511 76.389186,47.08709 62.803396,41.77017 51.71801,47.13651 41.537197,52.06496 40.57065,64.37568 49.811154,71.42376 c 1.822291,1.38993 9.585265,5.95831 17.251052,10.15197 16.047843,8.77915 21.423204,12.83687 24.928144,18.81759 7.23143,12.33951 1.77485,28.41579 -11.918827,35.11549 -8.435409,4.12706 -18.14083,4.48476 -29.08673,1.072 -9.955588,-3.10399 -13.553737,-3.06333 -14.971921,0.16919 -0.542921,1.2375 -1.555421,2.25 -2.25,2.25 C 32.796735,139 32.5,135.12303 32.5,122.5 z m 136.93879,15.13503 C 157.31458,134.3656 149.51512,123.00208 148.69263,107.40864 147.80097,90.50362 155.19289,76.92616 168,71.94495 c 1.65,-0.64175 5.925,-1.19135 9.5,-1.22134 10.92012,-0.0916 18.13955,4.30595 22.61671,13.77639 1.30006,2.75 2.36815,6.6875 2.37352,8.75 l 0.01,3.75 -22.13768,0 -22.13768,0 0.65899,5.60697 c 0.83457,7.10095 4.78229,15.51173 8.91715,18.99841 11.31243,9.53907 26.66774,6.12841 31.67244,-7.03495 1.08758,-2.86055 3.02678,-2.64985 3.02678,0.32886 0,3.50119 -6.19098,14.10834 -10.27466,17.60382 -4.00058,3.42434 -11.90113,6.56826 -16.15684,6.4294 -1.13768,-0.0371 -4.12104,-0.62099 -6.62971,-1.29748 z m 18.21013,-48.63015 c -1.64637,-16.39028 -21.09305,-18.35426 -27.59587,-2.787 -2.93488,7.02587 -3.25355,6.86749 13.19695,6.55885 L 188,92.5 187.64892,89.00488 z M 338,137.3836 c -5.15042,-1.13946 -7.45881,-1.26262 -8.73643,-0.46613 -0.95504,0.59539 -1.96754,1.08253 -2.25,1.08253 -0.28246,0 -0.51357,-5.175 -0.51357,-11.5 0,-6.325 0.36719,-11.5 0.81599,-11.5 0.44879,0 1.79572,2.36379 2.99317,5.25286 3.77546,9.10898 9.82362,13.87695 17.75497,13.99685 10.98963,0.16614 15.15797,-10.89647 6.85321,-18.18814 -1.93638,-1.70017 -7.10705,-4.8944 -11.49038,-7.09829 -14.71726,-7.3997 -19.41513,-13.99612 -16.9474,-23.79637 3.05685,-12.13985 11.89736,-16.29902 27.89425,-13.12331 5.70998,1.13354 6.47023,1.09301 7.29969,-0.38914 C 363.74665,67.94995 364.5,70.44084 364.5,81 c 0,6.05 -0.36719,11 -0.81599,11 -0.44879,0 -1.83605,-2.4611 -3.0828,-5.46911 -1.24676,-3.00802 -3.82022,-6.83302 -5.71881,-8.5 C 352.0206,75.51819 350.57301,75 346.41554,75 c -5.42675,0 -10.30337,1.96233 -11.29436,4.5448 -2.58731,6.74244 1.21979,11.57295 14.5241,18.42839 14.69679,7.57295 19.85472,13.00556 19.85472,20.91205 0,5.13181 -1.4594,8.90834 -4.81362,12.45634 -6.21499,6.57405 -15.14389,8.59563 -26.68638,6.04202 z m 334.83198,0.71196 C 657.26391,134.11793 648.08364,116.69681 651.42985,97.48143 654.36454,80.62917 665.15292,70.65809 680.5,70.61355 c 11.99806,-0.0348 21.38443,7.62609 23.9392,19.53855 0.59154,2.75828 0.82066,5.42744 0.50915,5.93147 C 704.63288,96.59402 694.60534,97 682.31317,97 l -22.06879,0 0.66835,4.25 c 1.72869,10.99262 5.6816,18.34935 12.224,22.75 3.10289,2.08711 4.89779,2.5 10.86784,2.5 6.31934,0 7.58521,-0.3311 10.8832,-2.8466 2.05265,-1.56563 4.67492,-4.78723 5.82726,-7.1591 2.62596,-5.40502 5.08683,-5.18167 3.57505,0.32447 -2.19813,8.00592 -8.33962,15.89045 -15.04026,19.30886 -4.45083,2.27065 -11.78996,3.15035 -16.41784,1.96793 z M 689.7734,88.69391 c -0.31938,-5.3647 -3.04135,-9.40316 -7.93431,-11.7718 -3.67317,-1.77816 -4.74716,-1.88932 -8.4974,-0.87948 -2.48576,0.66934 -5.58011,2.52087 -7.35092,4.39848 -3.03875,3.22201 -5.89125,10.10188 -4.87211,11.75089 0.29301,0.47409 6.91118,0.73734 14.70704,0.58499 L 690,92.5 689.7734,88.69391 z m -568.07531,47.63328 c -6.28323,-3.09656 -6.66287,-4.91508 -7.00955,-33.57719 L 114.37709,77 109.43854,77 C 106.72234,77 104.5,76.5867 104.5,76.08156 c 0,-0.50514 1.53151,-1.86497 3.40336,-3.02184 4.9503,-3.05945 10.10573,-9.14427 13.58171,-16.03014 C 123.15911,53.71331 124.97231,51 125.5144,51 c 0.58489,0 0.9856,4.26891 0.9856,10.5 l 0,10.5 7.5,0 c 7.33333,0 7.5,0.0556 7.5,2.5 0,2.44444 -0.16667,2.5 -7.5,2.5 l -7.5,0 0,24.04546 0,24.04545 2.51665,2.51665 c 2.92999,2.92998 5.47458,2.57938 9.653,-1.33002 4.24144,-3.96836 5.24341,-2.32042 1.84619,3.03643 -2.09349,3.30109 -4.36116,5.39435 -7.27838,6.71858 -5.16917,2.34646 -7.26729,2.40004 -11.53937,0.29464 z m 433.21321,-0.21814 c -6.82434,-4.16144 -9.86053,-12.1878 -7.41426,-19.60007 2.35315,-7.13013 9.23478,-12.0818 26.50296,-19.07019 8.8397,-3.5774 9.21903,-4.1583 8.00441,-12.25792 C 581.0307,78.68765 577.09281,75 571.13269,75 c -6.6735,0 -9.7563,2.99283 -10.27361,9.97379 -0.46934,6.33368 -1.6102,8.02621 -5.4101,8.02621 -4.43291,0 -6.25846,-2.56075 -5.65404,-7.93107 0.95374,-8.47403 10.78848,-14.4574 23.56327,-14.3357 10.59191,0.10091 15.58788,2.50668 19.24394,9.26677 0.98211,1.81592 1.43549,8.24624 1.65692,23.5 0.16767,11.55 0.52405,22.0125 0.79194,23.25 0.65344,3.0184 3.54005,2.8857 7.37226,-0.33889 2.76062,-2.32291 3.07673,-2.39567 3.07673,-0.70821 0,1.98363 -6.97749,9.28507 -10.68426,11.18031 -5.3016,2.71066 -10.57545,0.21143 -12.0316,-5.70168 l -0.8172,-3.31847 -4.74857,3.62581 c -8.77552,6.70061 -16.32962,8.2652 -22.30707,4.62018 z m 19.87854,-8.22556 C 582.5274,123.9937 582.5,124.05424 582.5,110.84501 582.5,103.12929 582.12854,99 581.43446,99 c -2.76516,0 -15.79955,7.11674 -18.76339,10.24476 -5.65657,5.96991 -5.17341,14.83848 1.04572,19.19454 3.01969,2.11507 6.06412,1.96225 11.07305,-0.55581 z m 49.78124,8.41436 c -1.8859,-0.98882 -4.34757,-3.05049 -5.47037,-4.5815 -1.90407,-2.59632 -2.06826,-4.53115 -2.43967,-28.75 L 616.26283,77 611.38141,77 C 605.9042,77 605.134,75.75774 609.28148,73.613 613.6996,71.3283 621.41475,62.4279 624.14325,56.46806 625.5201,53.46063 627.06363,51 627.57331,51 628.08339,51 628.5,55.72041 628.5,61.5 l 0,10.5 7.5,0 c 7.33333,0 7.5,0.0556 7.5,2.5 0,2.44444 -0.16667,2.5 -7.5,2.5 l -7.5,0 0,22.9349 c 0,12.64413 0.44217,24.09789 0.98546,25.52684 1.84544,4.85389 8.50015,5.04876 12.11844,0.35487 2.65399,-3.44294 4.18621,-1.82636 2.04793,2.1607 -4.28644,7.99254 -12.70485,11.66355 -19.08075,8.32054 z M 212.5,135.5 c 0,-0.93333 0.94444,-1.5 2.5,-1.5 1.375,0 3.4,-0.9 4.5,-2 1.88439,-1.88439 2,-3.33333 2,-25.06574 0,-14.50871 -0.398,-23.80942 -1.07283,-25.07035 -0.82699,-1.54524 -1.89716,-1.93358 -4.67014,-1.69467 -6.42794,0.5538 -4.56245,-1.84136 4.33508,-5.56594 4.77391,-1.9984 9.72453,-3.89565 11.00137,-4.21612 l 2.32153,-0.58266 0.29249,29.99432 c 0.27169,27.85988 0.42806,30.144 2.19749,32.09774 1.08553,1.19861 3.1288,2.10342 4.75,2.10342 1.86223,0 2.84501,0.51816 2.84501,1.5 0,1.26882 -2.38889,1.5 -15.5,1.5 -13.11111,0 -15.5,-0.23118 -15.5,-1.5 z m 36,0 c 0,-0.96598 0.97903,-1.50545 2.75,-1.51531 6.5479,-0.0365 7.25311,-2.74608 7.23526,-27.79979 C 258.46816,82.22398 258.04761,80.5 252.21931,80.5 c -2.03432,0 -3.88589,-0.48856 -4.1146,-1.08569 -0.50604,-1.32121 19.86818,-9.85812 21.34666,-8.94437 0.57675,0.35645 1.04863,3.38311 1.04863,6.72592 l 0,6.07782 4.8428,-4.52986 c 6.38022,-5.96796 10.47943,-7.97459 16.29072,-7.97459 6.61233,0 10.80484,2.6448 13.86648,8.74754 2.39864,4.78119 2.52027,5.92923 3,28.31556 0.46336,21.6227 0.64223,23.4362 2.44113,24.75 1.06762,0.77972 3.20512,1.41767 4.75,1.41767 1.83011,0 2.80887,0.52268 2.80887,1.5 0,1.27083 -2.44444,1.5 -16,1.5 -13.55556,0 -16,-0.22917 -16,-1.5 0,-1 1,-1.5 3,-1.5 1.69959,0 3.89645,-0.89645 5.06808,-2.06808 1.98707,-1.98707 2.05562,-2.93699 1.75,-24.25 -0.34523,-24.07546 -0.66452,-25.54724 -6.0237,-27.76709 -3.8261,-1.58482 -8.80132,-0.42749 -14.48156,3.3687 L 271,86.5 l -0.26945,21.73055 c -0.25616,20.65903 -0.16987,21.83013 1.75,23.75 1.1284,1.1284 3.34315,2.01945 5.01945,2.01945 2,0 3,0.5 3,1.5 0,1.27083 -2.44444,1.5 -16,1.5 -13.55556,0 -16,-0.22917 -16,-1.5 z m 139.02823,-33.63784 c -3.22201,-1.25371 -3.99433,-2.59267 -4.01292,-6.95717 -0.009,-2.21887 0.67969,-4.22398 1.80031,-5.23813 5.36825,-4.8582 13.18438,-1.7454 13.18438,5.25073 0,5.73804 -5.35756,9.1291 -10.97177,6.94457 z M 222.95455,48.54545 c -2.99864,-2.99863 -3.10374,-5.45043 -0.38197,-8.91059 C 226.55641,34.57024 234.5,37.45146 234.5,43.96105 234.5,47.48837 231.1405,51 227.76598,51 c -1.29629,0 -3.46143,-1.10455 -4.81143,-2.45455 z"
     id="path3767"
     inkscape:connector-curvature="0" />
</svg>
